# xmcd
#
# Track frame offsets:
#	150
#	16130
#	28596
#	40823
#	53324
#	67019
#	81013
#	96544
#	108261
#	121115
#	137305
#	150009
#	160713
#	172093
#
# Disc length: 2439 seconds
# Revision: 0
# Processed by: cddbd v1.5.2PL0 Copyright (c) Steve Scherf et al.
# Submitted via: dBpowerAMP V12.0
#
DISCID=9a09850e
DTITLE=Don Rigsby - Doctor's Orders - A Tribute To Ralph Stanley
DYEAR=2013
DGENRE=Country
TTITLE0=The Mountain Doctor
TTITLE1=Brand New Tennessee Waltz
TTITLE2=The Daughter of Geronimo
TTITLE3=Wild Geese Cry Again
TTITLE4=Little Maggie
TTITLE5=Home In the Mountains
TTITLE6=I Only Exist
TTITLE7=Sinner Man
TTITLE8=Six More Miles
TTITLE9=Walking Up This Hill On Decoration Day
TTITLE10=Medicine Springs
TTITLE11=Tennessee Truck Driving Man
TTITLE12=The Water Lilly
TTITLE13=Traveling the Highway Home
EXTD=
EXTT0=
EXTT1=
EXTT2=
EXTT3=
EXTT4=
EXTT5=
EXTT6=
EXTT7=
EXTT8=
EXTT9=
EXTT10=
EXTT11=
EXTT12=
EXTT13=
PLAYORDER=
